<mxfile host="app.diagrams.net" modified="2020-07-11T06:44:59.508Z" agent="5.0 (Macintosh; Intel Mac OS X 10_15_5) AppleWebKit/537.36 (KHTML, like Gecko) Chrome/83.0.4103.116 Safari/537.36" etag="9hqFYugrYdDsvdi7Dsxo" version="13.4.0" type="github">
  <diagram id="jDhGPHNopy-ATVGIMy4a" name="Page-1">
    <mxGraphModel dx="2066" dy="1105" grid="1" gridSize="10" guides="1" tooltips="1" connect="1" arrows="1" fold="1" page="1" pageScale="1" pageWidth="827" pageHeight="1169" math="0" shadow="0">
      <root>
        <mxCell id="0" />
        <mxCell id="1" parent="0" />
        <mxCell id="gmsf3eCMzc45QmMlYEc1-1" value="&lt;font style=&quot;font-size: 20px&quot;&gt;Stack&lt;/font&gt;" style="rounded=0;whiteSpace=wrap;html=1;fillColor=#dae8fc;strokeColor=#6c8ebf;" vertex="1" parent="1">
          <mxGeometry x="200" y="260" width="120" height="50" as="geometry" />
        </mxCell>
        <mxCell id="gmsf3eCMzc45QmMlYEc1-2" value="" style="rounded=0;whiteSpace=wrap;html=1;" vertex="1" parent="1">
          <mxGeometry x="200" y="310" width="120" height="60" as="geometry" />
        </mxCell>
        <mxCell id="gmsf3eCMzc45QmMlYEc1-3" value="&lt;font style=&quot;font-size: 20px&quot;&gt;Heap&lt;/font&gt;" style="rounded=0;whiteSpace=wrap;html=1;fillColor=#dae8fc;strokeColor=#6c8ebf;" vertex="1" parent="1">
          <mxGeometry x="200" y="370" width="120" height="60" as="geometry" />
        </mxCell>
        <mxCell id="gmsf3eCMzc45QmMlYEc1-4" value="&lt;font style=&quot;font-size: 20px&quot;&gt;Data&lt;/font&gt;" style="rounded=0;whiteSpace=wrap;html=1;fillColor=#dae8fc;strokeColor=#6c8ebf;" vertex="1" parent="1">
          <mxGeometry x="200" y="430" width="120" height="50" as="geometry" />
        </mxCell>
        <mxCell id="gmsf3eCMzc45QmMlYEc1-5" value="&lt;font style=&quot;font-size: 20px&quot;&gt;Text&lt;br&gt;(Instructions)&lt;/font&gt;" style="rounded=0;whiteSpace=wrap;html=1;fillColor=#dae8fc;strokeColor=#6c8ebf;" vertex="1" parent="1">
          <mxGeometry x="200" y="480" width="120" height="140" as="geometry" />
        </mxCell>
        <mxCell id="gmsf3eCMzc45QmMlYEc1-7" value="" style="endArrow=classic;html=1;" edge="1" parent="1">
          <mxGeometry width="50" height="50" relative="1" as="geometry">
            <mxPoint x="230" y="310" as="sourcePoint" />
            <mxPoint x="230" y="350" as="targetPoint" />
          </mxGeometry>
        </mxCell>
        <mxCell id="gmsf3eCMzc45QmMlYEc1-8" value="" style="endArrow=classic;html=1;" edge="1" parent="1">
          <mxGeometry width="50" height="50" relative="1" as="geometry">
            <mxPoint x="259.5" y="310" as="sourcePoint" />
            <mxPoint x="259.5" y="350" as="targetPoint" />
          </mxGeometry>
        </mxCell>
        <mxCell id="gmsf3eCMzc45QmMlYEc1-9" value="" style="endArrow=classic;html=1;" edge="1" parent="1">
          <mxGeometry width="50" height="50" relative="1" as="geometry">
            <mxPoint x="290" y="310" as="sourcePoint" />
            <mxPoint x="290" y="350" as="targetPoint" />
          </mxGeometry>
        </mxCell>
        <mxCell id="gmsf3eCMzc45QmMlYEc1-10" value="&lt;font style=&quot;font-size: 20px&quot;&gt;0&lt;/font&gt;" style="text;html=1;align=center;verticalAlign=middle;resizable=0;points=[];autosize=1;" vertex="1" parent="1">
          <mxGeometry x="345" y="600" width="30" height="20" as="geometry" />
        </mxCell>
        <mxCell id="gmsf3eCMzc45QmMlYEc1-11" value="&lt;font style=&quot;font-size: 20px&quot;&gt;MAX_SIZE&lt;/font&gt;" style="text;html=1;align=center;verticalAlign=middle;resizable=0;points=[];autosize=1;" vertex="1" parent="1">
          <mxGeometry x="350" y="260" width="110" height="20" as="geometry" />
        </mxCell>
        <mxCell id="gmsf3eCMzc45QmMlYEc1-12" value="&lt;font style=&quot;font-size: 18px&quot;&gt;Memory Map of Process&lt;/font&gt;" style="text;html=1;align=center;verticalAlign=middle;resizable=0;points=[];autosize=1;" vertex="1" parent="1">
          <mxGeometry x="152" y="640" width="210" height="20" as="geometry" />
        </mxCell>
      </root>
    </mxGraphModel>
  </diagram>
</mxfile>
